<svg id="Calque_2" data-name="Calque 2" xmlns="http://www.w3.org/2000/svg" viewBox="0 0 355.96 54.11">
  <defs>
    <style>
      .cls-1 {
        fill: #1d1d1b;
      }
    </style>
  </defs>
  <g id="Calque_1-2" data-name="Calque 1">
    <g>
      <path class="cls-1" d="m60.15,52.8h-12.48l-3.55-27.63-11.59,27.63h-4.95l-11.06-27.63-4.07,27.63H0L8.16,4.82h12.34l9.7,25.59,10.26-25.59h12.45l7.24,47.99Z"/>
      <path class="cls-1" d="m101.6,38.64h-24.22c0,4.9,2.35,7.35,7.06,7.35,2.4,0,4.24-1.03,5.52-3.09h11.18c-.89,2.94-2.2,5.22-3.94,6.83-3.14,2.92-7.35,4.38-12.62,4.38-6.7,0-11.74-2.04-15.12-6.12-2.53-3.05-3.8-6.76-3.8-11.14,0-5.2,1.58-9.43,4.75-12.69,3.16-3.26,7.63-4.89,13.39-4.89,7.1,0,12.18,2.58,15.22,7.75,1.71,2.91,2.57,6.29,2.57,10.14v1.48Zm-10.79-6.57c-.82-3.68-3-5.52-6.54-5.52-1.96,0-3.54.59-4.76,1.76-.96.93-1.56,2.19-1.82,3.76h13.11Z"/>
      <path class="cls-1" d="m144.95,52.8h-11.57v-3.62c-1.1,1.38-2.21,2.39-3.34,3.02-1.97,1.1-4.2,1.65-6.71,1.65-4.05,0-7.65-1.39-10.81-4.18-3.77-3.32-5.65-7.73-5.65-13.21s1.93-10.02,5.79-13.35c3.07-2.65,6.59-3.97,10.57-3.97,2.32,0,4.49.49,6.53,1.48,1.17.56,2.38,1.49,3.62,2.78V0h11.57v52.8Zm-11.21-16.29c0-2.07-.72-3.82-2.17-5.27-1.45-1.45-3.2-2.17-5.25-2.17-2.29,0-4.16.87-5.63,2.61-1.19,1.41-1.78,3.02-1.78,4.83s.59,3.42,1.78,4.83c1.45,1.74,3.32,2.61,5.63,2.61,2.08,0,3.83-.72,5.27-2.15,1.44-1.43,2.15-3.2,2.15-5.29Z"/>
      <path class="cls-1" d="m165.06,7.65c0,1.82-.63,3.36-1.88,4.61-1.25,1.25-2.79,1.88-4.61,1.88s-3.33-.63-4.58-1.89c-1.25-1.26-1.88-2.79-1.88-4.59s.62-3.33,1.88-4.58c1.25-1.25,2.78-1.88,4.58-1.88s3.33.63,4.59,1.88c1.26,1.25,1.89,2.78,1.89,4.58Zm-.7,45.16h-11.57V20.18h11.57v32.62Z"/>
      <path class="cls-1" d="m200.78,52.8h-27.46V4.82h12.48v37.58h14.98v10.41Z"/>
      <path class="cls-1" d="m240.72,38.64h-24.22c0,4.9,2.35,7.35,7.06,7.35,2.4,0,4.24-1.03,5.52-3.09h11.18c-.89,2.94-2.2,5.22-3.94,6.83-3.14,2.92-7.35,4.38-12.62,4.38-6.7,0-11.74-2.04-15.12-6.12-2.53-3.05-3.8-6.76-3.8-11.14,0-5.2,1.58-9.43,4.75-12.69,3.16-3.26,7.63-4.89,13.39-4.89,7.1,0,12.18,2.58,15.22,7.75,1.71,2.91,2.57,6.29,2.57,10.14v1.48Zm-10.79-6.57c-.82-3.68-3-5.52-6.54-5.52-1.96,0-3.54.59-4.76,1.76-.96.93-1.56,2.19-1.82,3.76h13.11Z"/>
      <path class="cls-1" d="m284.06,52.8h-11.57v-3.62c-1.1,1.38-2.21,2.39-3.34,3.02-1.97,1.1-4.2,1.65-6.71,1.65-4.05,0-7.65-1.39-10.81-4.18-3.77-3.32-5.65-7.73-5.65-13.21s1.93-10.02,5.79-13.35c3.07-2.65,6.59-3.97,10.57-3.97,2.32,0,4.49.48,6.53,1.44,1.17.56,2.38,1.49,3.62,2.78v-3.2h11.57v32.62Zm-11.21-16.31c0-2.05-.72-3.8-2.17-5.23-1.45-1.44-3.2-2.15-5.25-2.15-2.29,0-4.16.86-5.63,2.59-1.19,1.4-1.79,3-1.79,4.79s.59,3.39,1.79,4.79c1.45,1.73,3.32,2.59,5.63,2.59,2.08,0,3.83-.71,5.27-2.13s2.15-3.17,2.15-5.25Z"/>
      <path class="cls-1" d="m316.41,30.8c-1.61-.77-3.25-1.16-4.91-1.16-3.79,0-6.24,1.56-7.36,4.68-.42,1.12-.63,2.64-.63,4.54v13.96h-11.57V20.18h11.57v5.34c1.21-1.9,2.52-3.27,3.93-4.11,1.89-1.12,4.14-1.69,6.73-1.69.61,0,1.36.04,2.24.1v10.97Z"/>
      <path class="cls-1" d="m355.96,52.8h-11.57v-16.5c0-2.88-.33-4.79-.98-5.72-.96-1.38-2.39-2.07-4.3-2.07-1.75,0-3.21.59-4.4,1.78-1.07,1.07-1.61,2.75-1.61,5.04v17.47h-11.57V20.18h11.57v4.11c1.33-1.55,2.56-2.64,3.69-3.27,1.83-1.03,4.11-1.55,6.85-1.55,3.51,0,6.36.95,8.56,2.85,2.5,2.16,3.76,5.39,3.76,9.7v20.78Z"/>
    </g>
  </g>
</svg>